<svg width="142" height="36" viewBox="0 0 142 36" fill="none" xmlns="http://www.w3.org/2000/svg">
<path d="M0.199997 36V4H4.2V16H16.2V4H20.2V36H16.2V20H4.2V36H0.199997ZM4.2 4V0H16.2V4H4.2ZM46.6 32V20H50.6V32H46.6ZM46.6 16V4H50.6V16H46.6ZM30.6 36V0H46.6V4H34.6V16H46.6V20H34.6V32H46.6V36H30.6ZM65 36V32H77V36H65ZM61 32V4H65V32H61ZM77 32V4H81V32H77ZM65 4V0H77V4H65ZM95.4 36V32H107.4V36H95.4ZM91.4 32V0H95.4V32H91.4ZM107.4 32V0H111.4V32H107.4ZM129.8 36V4H121.8V0H141.8V4H133.8V36H129.8Z" fill="#AC3232"/>
</svg>
