<svg width="80" height="80" viewBox="0 0 80 80" fill="none" xmlns="http://www.w3.org/2000/svg">
<path d="M44 52V24H48V52H44ZM28 56V20H44V24H32V52H44V56H28Z" fill="white"/>
<path d="M44 52H43V53H44V52ZM44 24V23H43V24H44ZM48 24H49V23H48V24ZM48 52V53H49V52H48ZM28 56H27V57H28V56ZM28 20V19H27V20H28ZM44 20H45V19H44V20ZM44 24V25H45V24H44ZM32 24V23H31V24H32ZM32 52H31V53H32V52ZM44 52H45V51H44V52ZM44 56V57H45V56H44ZM45 52V24H43V52H45ZM44 25H48V23H44V25ZM47 24V52H49V24H47ZM48 51H44V53H48V51ZM29 56V20H27V56H29ZM28 21H44V19H28V21ZM43 20V24H45V20H43ZM44 23H32V25H44V23ZM31 24V52H33V24H31ZM32 53H44V51H32V53ZM43 52V56H45V52H43ZM44 55H28V57H44V55Z" fill="white"/>
<rect x="2" y="2" width="76" height="76" stroke="white" stroke-width="4"/>
</svg>
