<svg width="216" height="80" viewBox="0 0 216 80" fill="none" xmlns="http://www.w3.org/2000/svg">
<path d="M52 56V52H64V56H52ZM48 52V48H52V52H48ZM64 52V40H68V52H64ZM52 40V36H64V40H52ZM48 36V24H52V36H48ZM64 28V24H68V28H64ZM52 24V20H64V24H52ZM88 52V36H92V52H88ZM72 68V32H88V36H76V52H88V56H76V68H72ZM96 52V44H100V52H96ZM100 56V52H112V44H100V40H112V36H116V56H100ZM100 36V32H112V36H100ZM124 56V52H136V56H124ZM136 52V48H140V52H136ZM120 52V36H124V52H120ZM136 40V36H140V40H136ZM124 36V32H136V36H124ZM148 56V52H164V56H148ZM144 52V36H148V44H160V36H164V48H148V52H144ZM148 36V32H160V36H148Z" fill="white"/>
<path d="M52 56H51V57H52V56ZM52 52V51H51V52H52ZM64 52H65V51H64V52ZM64 56V57H65V56H64ZM48 52H47V53H48V52ZM48 48V47H47V48H48ZM52 48H53V47H52V48ZM52 52V53H53V52H52ZM64 52H63V53H64V52ZM64 40V39H63V40H64ZM68 40H69V39H68V40ZM68 52V53H69V52H68ZM52 40H51V41H52V40ZM52 36V35H51V36H52ZM64 36H65V35H64V36ZM64 40V41H65V40H64ZM48 36H47V37H48V36ZM48 24V23H47V24H48ZM52 24H53V23H52V24ZM52 36V37H53V36H52ZM64 28H63V29H64V28ZM64 24V23H63V24H64ZM68 24H69V23H68V24ZM68 28V29H69V28H68ZM52 24H51V25H52V24ZM52 20V19H51V20H52ZM64 20H65V19H64V20ZM64 24V25H65V24H64ZM53 56V52H51V56H53ZM52 53H64V51H52V53ZM63 52V56H65V52H63ZM64 55H52V57H64V55ZM49 52V48H47V52H49ZM48 49H52V47H48V49ZM51 48V52H53V48H51ZM52 51H48V53H52V51ZM65 52V40H63V52H65ZM64 41H68V39H64V41ZM67 40V52H69V40H67ZM68 51H64V53H68V51ZM53 40V36H51V40H53ZM52 37H64V35H52V37ZM63 36V40H65V36H63ZM64 39H52V41H64V39ZM49 36V24H47V36H49ZM48 25H52V23H48V25ZM51 24V36H53V24H51ZM52 35H48V37H52V35ZM65 28V24H63V28H65ZM64 25H68V23H64V25ZM67 24V28H69V24H67ZM68 27H64V29H68V27ZM53 24V20H51V24H53ZM52 21H64V19H52V21ZM63 20V24H65V20H63ZM64 23H52V25H64V23ZM88 52H87V53H88V52ZM88 36V35H87V36H88ZM92 36H93V35H92V36ZM92 52V53H93V52H92ZM72 68H71V69H72V68ZM72 32V31H71V32H72ZM88 32H89V31H88V32ZM88 36V37H89V36H88ZM76 36V35H75V36H76ZM76 52H75V53H76V52ZM88 52H89V51H88V52ZM88 56V57H89V56H88ZM76 56V55H75V56H76ZM76 68V69H77V68H76ZM89 52V36H87V52H89ZM88 37H92V35H88V37ZM91 36V52H93V36H91ZM92 51H88V53H92V51ZM73 68V32H71V68H73ZM72 33H88V31H72V33ZM87 32V36H89V32H87ZM88 35H76V37H88V35ZM75 36V52H77V36H75ZM76 53H88V51H76V53ZM87 52V56H89V52H87ZM88 55H76V57H88V55ZM75 56V68H77V56H75ZM76 67H72V69H76V67ZM96 52H95V53H96V52ZM96 44V43H95V44H96ZM100 44H101V43H100V44ZM100 52V53H101V52H100ZM100 56H99V57H100V56ZM100 52V51H99V52H100ZM112 52V53H113V52H112ZM112 44H113V43H112V44ZM100 44H99V45H100V44ZM100 40V39H99V40H100ZM112 40V41H113V40H112ZM112 36V35H111V36H112ZM116 36H117V35H116V36ZM116 56V57H117V56H116ZM100 36H99V37H100V36ZM100 32V31H99V32H100ZM112 32H113V31H112V32ZM112 36V37H113V36H112ZM97 52V44H95V52H97ZM96 45H100V43H96V45ZM99 44V52H101V44H99ZM100 51H96V53H100V51ZM101 56V52H99V56H101ZM100 53H112V51H100V53ZM113 52V44H111V52H113ZM112 43H100V45H112V43ZM101 44V40H99V44H101ZM100 41H112V39H100V41ZM113 40V36H111V40H113ZM112 37H116V35H112V37ZM115 36V56H117V36H115ZM116 55H100V57H116V55ZM101 36V32H99V36H101ZM100 33H112V31H100V33ZM111 32V36H113V32H111ZM112 35H100V37H112V35ZM124 56H123V57H124V56ZM124 52V51H123V52H124ZM136 52H137V51H136V52ZM136 56V57H137V56H136ZM136 52H135V53H136V52ZM136 48V47H135V48H136ZM140 48H141V47H140V48ZM140 52V53H141V52H140ZM120 52H119V53H120V52ZM120 36V35H119V36H120ZM124 36H125V35H124V36ZM124 52V53H125V52H124ZM136 40H135V41H136V40ZM136 36V35H135V36H136ZM140 36H141V35H140V36ZM140 40V41H141V40H140ZM124 36H123V37H124V36ZM124 32V31H123V32H124ZM136 32H137V31H136V32ZM136 36V37H137V36H136ZM125 56V52H123V56H125ZM124 53H136V51H124V53ZM135 52V56H137V52H135ZM136 55H124V57H136V55ZM137 52V48H135V52H137ZM136 49H140V47H136V49ZM139 48V52H141V48H139ZM140 51H136V53H140V51ZM121 52V36H119V52H121ZM120 37H124V35H120V37ZM123 36V52H125V36H123ZM124 51H120V53H124V51ZM137 40V36H135V40H137ZM136 37H140V35H136V37ZM139 36V40H141V36H139ZM140 39H136V41H140V39ZM125 36V32H123V36H125ZM124 33H136V31H124V33ZM135 32V36H137V32H135ZM136 35H124V37H136V35ZM148 56H147V57H148V56ZM148 52V51H147V52H148ZM164 52H165V51H164V52ZM164 56V57H165V56H164ZM144 52H143V53H144V52ZM144 36V35H143V36H144ZM148 36H149V35H148V36ZM148 44H147V45H148V44ZM160 44V45H161V44H160ZM160 36V35H159V36H160ZM164 36H165V35H164V36ZM164 48V49H165V48H164ZM148 48V47H147V48H148ZM148 52V53H149V52H148ZM148 36H147V37H148V36ZM148 32V31H147V32H148ZM160 32H161V31H160V32ZM160 36V37H161V36H160ZM149 56V52H147V56H149ZM148 53H164V51H148V53ZM163 52V56H165V52H163ZM164 55H148V57H164V55ZM145 52V36H143V52H145ZM144 37H148V35H144V37ZM147 36V44H149V36H147ZM148 45H160V43H148V45ZM161 44V36H159V44H161ZM160 37H164V35H160V37ZM163 36V48H165V36H163ZM164 47H148V49H164V47ZM147 48V52H149V48H147ZM148 51H144V53H148V51ZM149 36V32H147V36H149ZM148 33H160V31H148V33ZM159 32V36H161V32H159ZM160 35H148V37H160V35Z" fill="white"/>
<rect x="2" y="2" width="212" height="76" stroke="white" stroke-width="4"/>
</svg>
