<svg width="80" height="80" viewBox="0 0 80 80" fill="none" xmlns="http://www.w3.org/2000/svg">
<path d="M28 56V24H32V36H44V24H48V56H44V40H32V56H28ZM32 24V20H44V24H32Z" fill="#AC3232"/>
<path d="M28 56H27V57H28V56ZM28 24V23H27V24H28ZM32 24H33V23H32V24ZM32 36H31V37H32V36ZM44 36V37H45V36H44ZM44 24V23H43V24H44ZM48 24H49V23H48V24ZM48 56V57H49V56H48ZM44 56H43V57H44V56ZM44 40H45V39H44V40ZM32 40V39H31V40H32ZM32 56V57H33V56H32ZM32 24H31V25H32V24ZM32 20V19H31V20H32ZM44 20H45V19H44V20ZM44 24V25H45V24H44ZM29 56V24H27V56H29ZM28 25H32V23H28V25ZM31 24V36H33V24H31ZM32 37H44V35H32V37ZM45 36V24H43V36H45ZM44 25H48V23H44V25ZM47 24V56H49V24H47ZM48 55H44V57H48V55ZM45 56V40H43V56H45ZM44 39H32V41H44V39ZM31 40V56H33V40H31ZM32 55H28V57H32V55ZM33 24V20H31V24H33ZM32 21H44V19H32V21ZM43 20V24H45V20H43ZM44 23H32V25H44V23Z" fill="#AC3232"/>
<rect x="2" y="2" width="76" height="76" stroke="#AC3232" stroke-width="4"/>
</svg>
