<svg width="80" height="80" viewBox="0 0 80 80" fill="none" xmlns="http://www.w3.org/2000/svg">
<path d="M36 48V44H40V48H36ZM28 56V20H32V48H36V52H32V56H28ZM44 56V52H40V48H44V20H48V56H44Z" fill="white"/>
<path d="M36 48H35V49H36V48ZM36 44V43H35V44H36ZM40 44H41V43H40V44ZM40 48V49H41V48H40ZM28 56H27V57H28V56ZM28 20V19H27V20H28ZM32 20H33V19H32V20ZM32 48H31V49H32V48ZM36 48H37V47H36V48ZM36 52V53H37V52H36ZM32 52V51H31V52H32ZM32 56V57H33V56H32ZM44 56H43V57H44V56ZM44 52H45V51H44V52ZM40 52H39V53H40V52ZM40 48V47H39V48H40ZM44 48V49H45V48H44ZM44 20V19H43V20H44ZM48 20H49V19H48V20ZM48 56V57H49V56H48ZM37 48V44H35V48H37ZM36 45H40V43H36V45ZM39 44V48H41V44H39ZM40 47H36V49H40V47ZM29 56V20H27V56H29ZM28 21H32V19H28V21ZM31 20V48H33V20H31ZM32 49H36V47H32V49ZM35 48V52H37V48H35ZM36 51H32V53H36V51ZM31 52V56H33V52H31ZM32 55H28V57H32V55ZM45 56V52H43V56H45ZM44 51H40V53H44V51ZM41 52V48H39V52H41ZM40 49H44V47H40V49ZM45 48V20H43V48H45ZM44 21H48V19H44V21ZM47 20V56H49V20H47ZM48 55H44V57H48V55Z" fill="white"/>
<rect x="2" y="2" width="76" height="76" stroke="white" stroke-width="4"/>
</svg>
