<svg width="678" height="36" viewBox="0 0 678 36" fill="none" xmlns="http://www.w3.org/2000/svg">
<path d="M0.200012 36V4H4.20001V16H16.2V4H20.2V36H16.2V20H4.20001V36H0.200012ZM4.20001 4V0H16.2V4H4.20001ZM46.6 16V4H50.6V16H46.6ZM30.6 36V0H46.6V4H34.6V16H46.6V20H34.6V36H30.6ZM61 36V0H81V4H65V16H81V20H65V32H81V36H61ZM107.4 36V24H111.4V36H107.4ZM107.4 16V4H111.4V16H107.4ZM91.4 36V0H107.4V4H95.4V16H107.4V24H103.4V20H95.4V36H91.4ZM129.8 36V4H121.8V0H141.8V4H133.8V36H129.8ZM152.2 36V0H172.2V4H156.2V16H172.2V20H156.2V32H172.2V36H152.2ZM197 36V0H217V4H201V16H217V20H201V32H217V36H197ZM235.4 20V16H239.4V20H235.4ZM227.4 36V0H231.4V8H235.4V16H231.4V36H227.4ZM243.4 36V28H239.4V20H243.4V0H247.4V36H243.4ZM265.8 36V4H257.8V0H277.8V4H269.8V36H265.8ZM288.2 36V0H308.2V4H292.2V16H308.2V20H292.2V32H308.2V36H288.2ZM334.6 36V24H338.6V36H334.6ZM334.6 16V4H338.6V16H334.6ZM318.6 36V0H334.6V4H322.6V16H334.6V24H330.6V20H322.6V36H318.6ZM379.4 16V4H383.4V16H379.4ZM363.4 36V0H379.4V4H367.4V16H379.4V20H367.4V36H363.4ZM393.8 36V4H397.8V16H409.8V4H413.8V36H409.8V20H397.8V36H393.8ZM397.8 4V0H409.8V4H397.8ZM440.2 36V24H444.2V36H440.2ZM440.2 16V4H444.2V16H440.2ZM424.2 36V0H440.2V4H428.2V16H440.2V24H436.2V20H428.2V36H424.2ZM454.6 36V4H458.6V16H470.6V4H474.6V36H470.6V20H458.6V36H454.6ZM458.6 4V0H470.6V4H458.6ZM499.4 36V32H503.4V4H499.4V0H511.4V4H507.4V32H511.4V36H499.4ZM529.8 20V16H533.8V20H529.8ZM521.8 36V0H525.8V8H529.8V16H525.8V36H521.8ZM537.8 36V28H533.8V20H537.8V0H541.8V36H537.8ZM552.2 36V32H556.2V4H552.2V0H564.2V4H560.2V32H564.2V36H552.2ZM578.6 36V32H590.6V36H578.6ZM590.6 32V24H594.6V32H590.6ZM574.6 32V4H578.6V32H574.6ZM590.6 12V4H594.6V12H590.6ZM578.6 4V0H590.6V4H578.6ZM605 36V32H609V4H605V0H617V4H613V32H617V36H605ZM627.4 36V4H631.4V16H643.4V4H647.4V36H643.4V20H631.4V36H627.4ZM631.4 4V0H643.4V4H631.4ZM673.8 36V24H677.8V36H673.8ZM673.8 16V4H677.8V16H673.8ZM657.8 36V0H673.8V4H661.8V16H673.8V24H669.8V20H661.8V36H657.8Z" fill="white"/>
</svg>
