<svg width="414" height="36" viewBox="0 0 414 36" fill="none" xmlns="http://www.w3.org/2000/svg">
<path d="M8.2 36V28H12.2V36H8.2ZM4.2 28V20H8.2V28H4.2ZM12.2 28V20H16.2V28H12.2ZM0.199997 20V0H4.2V20H0.199997ZM16.2 20V0H20.2V20H16.2ZM34.6 36V32H46.6V36H34.6ZM30.6 32V4H34.6V32H30.6ZM46.6 32V4H50.6V32H46.6ZM34.6 4V0H46.6V4H34.6ZM61 36V0H65V32H81V36H61ZM99.4 36V4H91.4V0H111.4V4H103.4V36H99.4ZM121.8 36V4H125.8V16H137.8V4H141.8V36H137.8V20H125.8V36H121.8ZM125.8 4V0H137.8V4H125.8ZM168.2 36V24H172.2V36H168.2ZM168.2 16V4H172.2V16H168.2ZM152.2 36V0H168.2V4H156.2V16H168.2V24H164.2V20H156.2V36H152.2ZM197 36V4H201V16H213V4H217V36H213V20H201V36H197ZM201 4V0H213V4H201ZM257.8 36V24H261.8V36H257.8ZM257.8 16V4H261.8V16H257.8ZM241.8 36V0H257.8V4H245.8V16H257.8V24H253.8V20H245.8V36H241.8ZM276.2 36V32H288.2V36H276.2ZM272.2 32V4H276.2V32H272.2ZM288.2 32V4H292.2V32H288.2ZM276.2 4V0H288.2V4H276.2ZM302.6 36V0H306.6V32H322.6V36H302.6ZM333 36V0H353V4H337V16H353V20H337V32H353V36H333ZM371.4 36V4H363.4V0H383.4V4H375.4V36H371.4ZM393.8 36V4H397.8V16H409.8V4H413.8V36H409.8V20H397.8V36H393.8ZM397.8 4V0H409.8V4H397.8Z" fill="white"/>
</svg>
