<svg width="302" height="21" viewBox="0 0 302 21" fill="none" xmlns="http://www.w3.org/2000/svg">
<path d="M2.60001 21V18.75H9.35001V21H2.60001ZM0.350006 18.75V16.5H2.60001V18.75H0.350006ZM9.35001 18.75V12H11.6V18.75H9.35001ZM2.60001 12V9.75H9.35001V12H2.60001ZM0.350006 9.75V3H2.60001V9.75H0.350006ZM9.35001 5.25V3H11.6V5.25H9.35001ZM2.60001 3V0.75H9.35001V3H2.60001ZM17.45 21V3H19.7V9.75H26.45V3H28.7V21H26.45V12H19.7V21H17.45ZM19.7 3V0.75H26.45V3H19.7ZM34.55 21V0.75H36.8V18.75H45.8V21H34.55ZM56.15 21V16.5H58.4V21H56.15ZM53.9 16.5V12H56.15V16.5H53.9ZM58.4 16.5V12H60.65V16.5H58.4ZM51.65 12V0.75H53.9V12H51.65ZM60.65 12V0.75H62.9V12H60.65ZM68.75 21V0.75H80V3H71V9.75H80V12H71V18.75H80V21H68.75ZM96.2 21V18.75H102.95V21H96.2ZM93.95 18.75V16.5H96.2V18.75H93.95ZM102.95 18.75V12H105.2V18.75H102.95ZM96.2 12V9.75H102.95V12H96.2ZM93.95 9.75V3H96.2V9.75H93.95ZM102.95 5.25V3H105.2V5.25H102.95ZM96.2 3V0.75H102.95V3H96.2ZM113.3 21V18.75H120.05V21H113.3ZM111.05 18.75V0.75H113.3V18.75H111.05ZM120.05 18.75V0.75H122.3V18.75H120.05ZM128.15 21V3H130.4V9.75H137.15V3H139.4V21H137.15V12H130.4V21H128.15ZM130.4 3V0.75H137.15V3H130.4ZM162.35 9.75V3H164.6V9.75H162.35ZM153.35 21V0.75H162.35V3H155.6V9.75H162.35V12H155.6V21H153.35ZM172.7 21V18.75H179.45V21H172.7ZM170.45 18.75V3H172.7V18.75H170.45ZM179.45 18.75V3H181.7V18.75H179.45ZM172.7 3V0.75H179.45V3H172.7ZM192.05 12V9.75H194.3V12H192.05ZM187.55 21V0.75H189.8V5.25H192.05V9.75H189.8V21H187.55ZM196.55 21V16.5H194.3V12H196.55V0.75H198.8V21H196.55ZM209.15 21V3H204.65V0.75H215.9V3H211.4V21H209.15ZM224 21V18.75H230.75V21H224ZM221.75 18.75V0.75H224V18.75H221.75ZM230.75 18.75V0.75H233V18.75H230.75ZM238.85 21V3H241.1V9.75H247.85V3H250.1V21H247.85V12H241.1V21H238.85ZM241.1 3V0.75H247.85V3H241.1ZM258.2 21V18.75H264.95V21H258.2ZM264.95 18.75V14.25H267.2V18.75H264.95ZM255.95 18.75V3H258.2V18.75H255.95ZM264.95 7.5V3H267.2V7.5H264.95ZM258.2 3V0.75H264.95V3H258.2ZM273.05 21V3H275.3V9.75H282.05V3H284.3V21H282.05V12H275.3V21H273.05ZM275.3 3V0.75H282.05V3H275.3ZM292.4 21V18.75H299.15V21H292.4ZM290.15 18.75V3H292.4V18.75H290.15ZM299.15 18.75V3H301.4V18.75H299.15ZM292.4 3V0.75H299.15V3H292.4Z" fill="white"/>
</svg>
