<svg width="278" height="36" viewBox="0 0 278 36" fill="none" xmlns="http://www.w3.org/2000/svg">
<path d="M4 36V32H16V36H4ZM0 32V28H4V32H0ZM16 32V20H20V32H16ZM4 20V16H16V20H4ZM0 16V4H4V16H0ZM16 8V4H20V8H16ZM4 4V0H16V4H4ZM38.4 36V4H30.4V0H50.4V4H42.4V36H38.4ZM60.8 36V4H64.8V16H76.8V4H80.8V36H76.8V20H64.8V36H60.8ZM64.8 4V0H76.8V4H64.8ZM107.2 36V24H111.2V36H107.2ZM107.2 16V4H111.2V16H107.2ZM91.2 36V0H107.2V4H95.2V16H107.2V24H103.2V20H95.2V36H91.2ZM129.6 36V4H121.6V0H141.6V4H133.6V36H129.6ZM170.4 36V32H182.4V36H170.4ZM182.4 32V20H178.4V16H186.4V32H182.4ZM166.4 32V4H170.4V32H166.4ZM182.4 8V4H186.4V8H182.4ZM170.4 4V0H182.4V4H170.4ZM196.8 36V4H200.8V16H212.8V4H216.8V36H212.8V20H200.8V36H196.8ZM200.8 4V0H212.8V4H200.8ZM235.2 20V12H239.2V20H235.2ZM227.2 36V0H231.2V4H235.2V12H231.2V36H227.2ZM243.2 36V12H239.2V4H243.2V0H247.2V36H243.2ZM257.6 36V0H277.6V4H261.6V16H277.6V20H261.6V32H277.6V36H257.6Z" fill="white"/>
</svg>
