<svg width="310" height="53" viewBox="0 0 310 53" fill="none" xmlns="http://www.w3.org/2000/svg">
<path d="M34.95 21V16.5H37.2V21H34.95ZM32.7 16.5V12H34.95V16.5H32.7ZM37.2 16.5V12H39.45V16.5H37.2ZM30.45 12V0.75H32.7V12H30.45ZM39.45 12V0.75H41.7V12H39.45ZM49.8 21V18.75H56.55V21H49.8ZM47.55 18.75V3H49.8V18.75H47.55ZM56.55 18.75V3H58.8V18.75H56.55ZM49.8 3V0.75H56.55V3H49.8ZM66.9 21V18.75H73.65V21H66.9ZM73.65 18.75V14.25H75.9V18.75H73.65ZM64.65 18.75V3H66.9V18.75H64.65ZM73.65 7.5V3H75.9V7.5H73.65ZM66.9 3V0.75H73.65V3H66.9ZM81.75 21V0.75H93V3H84V9.75H93V12H84V18.75H93V21H81.75ZM106.95 21V0.75H118.2V3H109.2V9.75H115.95V12H109.2V21H106.95ZM126.3 21V18.75H133.05V21H126.3ZM124.05 18.75V3H126.3V18.75H124.05ZM133.05 18.75V3H135.3V18.75H133.05ZM126.3 3V0.75H133.05V3H126.3ZM141.15 21V18.75H143.4V3H141.15V0.75H147.9V3H145.65V18.75H147.9V21H141.15ZM161.85 21V3H164.1V9.75H170.85V3H173.1V21H170.85V12H164.1V21H161.85ZM164.1 3V0.75H170.85V3H164.1ZM187.95 18.75V12H190.2V18.75H187.95ZM187.95 9.75V3H190.2V9.75H187.95ZM178.95 21V0.75H187.95V3H181.2V9.75H187.95V12H181.2V18.75H187.95V21H178.95ZM196.05 21V3H198.3V9.75H205.05V3H207.3V21H205.05V12H198.3V21H196.05ZM198.3 3V0.75H205.05V3H198.3ZM217.65 21V3H213.15V0.75H224.4V3H219.9V21H217.65ZM230.25 21V18.75H232.5V3H230.25V0.75H237V3H234.75V18.75H237V21H230.25ZM251.85 18.75V3H254.1V18.75H251.85ZM242.85 21V0.75H251.85V3H245.1V18.75H251.85V21H242.85ZM262.2 21V18.75H268.95V21H262.2ZM259.95 18.75V3H262.2V18.75H259.95ZM268.95 18.75V3H271.2V18.75H268.95ZM262.2 3V0.75H268.95V3H262.2ZM0.300003 53V35H2.55V41.75H9.3V35H11.55V53H9.3V44H2.55V53H0.300003ZM2.55 35V32.75H9.3V35H2.55ZM30 53V35H25.5V32.75H36.75V35H32.25V53H30ZM42.6 53V32.75H53.85V35H44.85V41.75H53.85V44H44.85V50.75H53.85V53H42.6ZM68.7 53V46.25H70.95V53H68.7ZM68.7 41.75V35H70.95V41.75H68.7ZM59.7 53V32.75H68.7V35H61.95V41.75H68.7V46.25H66.45V44H61.95V53H59.7ZM85.8 53V46.25H88.05V53H85.8ZM85.8 41.75V35H88.05V41.75H85.8ZM76.8 53V32.75H85.8V35H79.05V41.75H85.8V46.25H83.55V44H79.05V53H76.8ZM93.9 53V35H96.15V41.75H102.9V35H105.15V53H102.9V44H96.15V53H93.9ZM96.15 35V32.75H102.9V35H96.15ZM119.1 53V32.75H130.35V35H121.35V41.75H130.35V44H121.35V50.75H130.35V53H119.1ZM138.45 53V50.75H145.2V53H138.45ZM136.2 50.75V48.5H138.45V50.75H136.2ZM145.2 50.75V44H147.45V50.75H145.2ZM138.45 44V41.75H145.2V44H138.45ZM136.2 41.75V35H138.45V41.75H136.2ZM145.2 37.25V35H147.45V37.25H145.2ZM138.45 35V32.75H145.2V35H138.45ZM157.8 53V35H153.3V32.75H164.55V35H160.05V53H157.8ZM170.4 53V35H172.65V41.75H179.4V35H181.65V53H179.4V44H172.65V53H170.4ZM172.65 35V32.75H179.4V35H172.65ZM195.6 53V35H197.85V41.75H204.6V35H206.85V53H204.6V44H197.85V53H195.6ZM197.85 35V32.75H204.6V35H197.85ZM214.95 53V50.75H221.7V53H214.95ZM221.7 50.75V46.25H223.95V50.75H221.7ZM212.7 50.75V35H214.95V50.75H212.7ZM221.7 39.5V35H223.95V39.5H221.7ZM214.95 35V32.75H221.7V35H214.95ZM229.8 53V35H232.05V41.75H238.8V35H241.05V53H238.8V44H232.05V53H229.8ZM232.05 35V32.75H238.8V35H232.05ZM255.9 50.75V44H258.15V50.75H255.9ZM255.9 41.75V35H258.15V41.75H255.9ZM246.9 53V32.75H255.9V35H249.15V41.75H255.9V44H249.15V50.75H255.9V53H246.9ZM264 53V35H266.25V41.75H273V35H275.25V53H273V44H266.25V53H264ZM266.25 35V32.75H273V35H266.25ZM290.1 50.75V35H292.35V50.75H290.1ZM281.1 53V32.75H290.1V35H283.35V50.75H290.1V53H281.1ZM298.2 53V35H300.45V41.75H307.2V35H309.45V53H307.2V44H300.45V53H298.2ZM300.45 35V32.75H307.2V35H300.45Z" fill="white"/>
</svg>
