<svg width="319" height="53" viewBox="0 0 319 53" fill="none" xmlns="http://www.w3.org/2000/svg">
<path d="M9.3 9.75V3H11.55V9.75H9.3ZM0.300003 21V0.75H9.3V3H2.55V9.75H9.3V12H2.55V21H0.300003ZM17.4 21V3H19.65V9.75H26.4V3H28.65V21H26.4V12H19.65V21H17.4ZM19.65 3V0.75H26.4V3H19.65ZM43.5 21V14.25H45.75V21H43.5ZM43.5 9.75V3H45.75V9.75H43.5ZM34.5 21V0.75H43.5V3H36.75V9.75H43.5V14.25H41.25V12H36.75V21H34.5ZM51.6 21V3H53.85V9.75H60.6V3H62.85V21H60.6V12H53.85V21H51.6ZM53.85 3V0.75H60.6V3H53.85ZM77.7 18.75V12H79.95V18.75H77.7ZM77.7 9.75V3H79.95V9.75H77.7ZM68.7 21V0.75H77.7V3H70.95V9.75H77.7V12H70.95V18.75H77.7V21H68.7ZM85.8 21V0.75H97.05V3H88.05V9.75H97.05V12H88.05V18.75H97.05V21H85.8ZM107.4 12V9.75H109.65V12H107.4ZM102.9 21V0.75H105.15V5.25H107.4V9.75H105.15V21H102.9ZM111.9 21V16.5H109.65V12H111.9V0.75H114.15V21H111.9ZM122.25 21V18.75H129V21H122.25ZM120 18.75V16.5H122.25V18.75H120ZM129 18.75V12H131.25V18.75H129ZM122.25 12V9.75H129V12H122.25ZM120 9.75V3H122.25V9.75H120ZM129 5.25V3H131.25V5.25H129ZM122.25 3V0.75H129V3H122.25ZM149.7 21V16.5H151.95V21H149.7ZM147.45 16.5V12H149.7V16.5H147.45ZM151.95 16.5V12H154.2V16.5H151.95ZM145.2 12V0.75H147.45V12H145.2ZM154.2 12V0.75H156.45V12H154.2ZM164.55 21V18.75H171.3V21H164.55ZM162.3 18.75V3H164.55V18.75H162.3ZM171.3 18.75V3H173.55V18.75H171.3ZM164.55 3V0.75H171.3V3H164.55ZM181.65 21V18.75H188.4V21H181.65ZM188.4 18.75V14.25H190.65V18.75H188.4ZM179.4 18.75V3H181.65V18.75H179.4ZM188.4 7.5V3H190.65V7.5H188.4ZM181.65 3V0.75H188.4V3H181.65ZM196.5 21V0.75H207.75V3H198.75V9.75H207.75V12H198.75V18.75H207.75V21H196.5ZM226.2 21V16.5H228.45V21H226.2ZM223.95 16.5V12H226.2V16.5H223.95ZM228.45 16.5V12H230.7V16.5H228.45ZM221.7 12V0.75H223.95V12H221.7ZM230.7 12V0.75H232.95V12H230.7ZM238.8 21V0.75H250.05V3H241.05V9.75H250.05V12H241.05V18.75H250.05V21H238.8ZM260.4 12V9.75H262.65V12H260.4ZM255.9 21V0.75H258.15V5.25H260.4V9.75H258.15V21H255.9ZM264.9 21V16.5H262.65V12H264.9V0.75H267.15V21H264.9ZM275.25 21V18.75H282V21H275.25ZM282 18.75V14.25H284.25V18.75H282ZM273 18.75V3H275.25V18.75H273ZM282 7.5V3H284.25V7.5H282ZM275.25 3V0.75H282V3H275.25ZM290.1 21V0.75H301.35V3H292.35V9.75H301.35V12H292.35V18.75H301.35V21H290.1ZM309.45 21V18.75H316.2V21H309.45ZM307.2 18.75V0.75H309.45V18.75H307.2ZM316.2 18.75V0.75H318.45V18.75H316.2ZM21.9 53V35H24.15V41.75H30.9V35H33.15V53H30.9V44H24.15V53H21.9ZM24.15 35V32.75H30.9V35H24.15ZM51.6 53V35H47.1V32.75H58.35V35H53.85V53H51.6ZM64.2 53V32.75H75.45V35H66.45V41.75H75.45V44H66.45V50.75H75.45V53H64.2ZM90.3 53V46.25H92.55V53H90.3ZM90.3 41.75V35H92.55V41.75H90.3ZM81.3 53V32.75H90.3V35H83.55V41.75H90.3V46.25H88.05V44H83.55V53H81.3ZM107.4 53V46.25H109.65V53H107.4ZM107.4 41.75V35H109.65V41.75H107.4ZM98.4 53V32.75H107.4V35H100.65V41.75H107.4V46.25H105.15V44H100.65V53H98.4ZM115.5 53V35H117.75V41.75H124.5V35H126.75V53H124.5V44H117.75V53H115.5ZM117.75 35V32.75H124.5V35H117.75ZM140.7 53V32.75H151.95V35H142.95V41.75H151.95V44H142.95V50.75H151.95V53H140.7ZM160.05 53V50.75H166.8V53H160.05ZM157.8 50.75V48.5H160.05V50.75H157.8ZM166.8 50.75V44H169.05V50.75H166.8ZM160.05 44V41.75H166.8V44H160.05ZM157.8 41.75V35H160.05V41.75H157.8ZM166.8 37.25V35H169.05V37.25H166.8ZM160.05 35V32.75H166.8V35H160.05ZM179.4 53V35H174.9V32.75H186.15V35H181.65V53H179.4ZM192 53V35H194.25V41.75H201V35H203.25V53H201V44H194.25V53H192ZM194.25 35V32.75H201V35H194.25ZM219.45 53V50.75H226.2V53H219.45ZM217.2 50.75V48.5H219.45V50.75H217.2ZM226.2 50.75V44H228.45V50.75H226.2ZM219.45 44V41.75H226.2V44H219.45ZM217.2 41.75V35H219.45V41.75H217.2ZM226.2 37.25V35H228.45V37.25H226.2ZM219.45 35V32.75H226.2V35H219.45ZM234.3 53V35H236.55V41.75H243.3V35H245.55V53H243.3V44H236.55V53H234.3ZM236.55 35V32.75H243.3V35H236.55ZM251.4 53V32.75H253.65V50.75H262.65V53H251.4ZM273 53V48.5H275.25V53H273ZM270.75 48.5V44H273V48.5H270.75ZM275.25 48.5V44H277.5V48.5H275.25ZM268.5 44V32.75H270.75V44H268.5ZM277.5 44V32.75H279.75V44H277.5ZM285.6 53V35H287.85V41.75H294.6V35H296.85V53H294.6V44H287.85V53H285.6ZM287.85 35V32.75H294.6V35H287.85Z" fill="white"/>
</svg>
